<?xml version="1.0" encoding="utf-8"?>
<!-- Generator: Adobe Illustrator 24.2.1, SVG Export Plug-In . SVG Version: 6.00 Build 0)  -->
<svg version="1.1" id="Layer_1" xmlns="http://www.w3.org/2000/svg" xmlns:xlink="http://www.w3.org/1999/xlink" x="0px" y="0px"
	 viewBox="0 0 478.4 464.9" style="enable-background:new 0 0 478.4 464.9;" xml:space="preserve">
<style type="text/css">
	.st0{fill:#F5F5F5;}
	.st1{fill:#E1E1E1;}
	.st2{fill:#375A64;}
	.st3{fill:#FF735D;}
	.st4{opacity:0.3;}
	.st5{fill:#FFFFFF;}
	.st6{fill:none;}
	.st7{opacity:0.2;fill:#F5F5F5;}
	.st8{opacity:0.5;}
	.st9{fill:#1A2E35;}
	.st10{opacity:0.2;}
	.st11{opacity:0.3;fill:#FFFFFF;}
</style>
<g>
	<g>
		<g>
			<g>
				<g>
					<g>
						<g>
							<g>
								<g>
									<path class="st0" d="M307.4,233.2c-47.2-0.4-90-0.8-121-1.1c-15.5-0.1-28-0.1-36.7-0.2c-4.3,0-7.7,0-10,0c-1.1,0-2,0-2.6,0
										c-0.6,0-0.9,0-0.9,0c0,0,0.3,0,0.9,0.1c0.6,0,1.5,0,2.6,0.1c2.3,0,5.7,0.1,10,0.1c8.7,0,21.2,0.1,36.7,0.2
										c31,0,73.7,0,121,0.1c47.2,0,90,0.1,120.9,0.3c15.5,0.1,28,0.3,36.7,0.4c4.3,0.1,7.7,0.2,10,0.3c2.3,0.1,3.5,0.2,3.5,0.3
										c0,0.1-1.2,0.2-3.5,0.2c-2.3,0.1-5.6,0.1-10,0.2c-8.7,0.1-21.2,0.1-36.7,0C397.3,234,354.6,233.6,307.4,233.2z"/>
								</g>
							</g>
						</g>
					</g>
				</g>
			</g>
		</g>
	</g>
	<g>
		<g>
			<g>
				<g>
					<g>
						<g>
							<g>
								<g>
									<path class="st0" d="M306.4,243.5c-46.6-7.6-88.8-14.4-119.3-19.4c-15.3-2.4-27.6-4.4-36.2-5.7c-4.3-0.6-7.6-1.1-9.9-1.5
										c-1.1-0.2-2-0.3-2.6-0.4c-0.6-0.1-0.9-0.1-0.9-0.1c0,0,0.3,0.1,0.9,0.2c0.6,0.1,1.5,0.3,2.6,0.5c2.3,0.4,5.6,0.9,9.8,1.6
										c8.6,1.4,20.9,3.3,36.2,5.7c30.6,4.7,72.8,11.2,119.5,18.3c46.6,7.1,88.9,13.6,119.4,18.5c15.3,2.4,27.6,4.5,36.1,5.9
										c4.3,0.7,7.6,1.3,9.8,1.8c2.2,0.4,3.4,0.7,3.4,0.8c0,0.1-1.2,0-3.5-0.3c-2.3-0.3-5.6-0.7-9.9-1.4
										c-8.6-1.2-20.9-3.1-36.2-5.5C395.2,258,353,251.1,306.4,243.5z"/>
								</g>
							</g>
						</g>
					</g>
				</g>
			</g>
		</g>
	</g>
	<g>
		<g>
			<g>
				<g>
					<g>
						<g>
							<g>
								<g>
									<path class="st0" d="M303.8,253.6c-44.8-14.6-85.3-27.8-114.7-37.4c-14.7-4.7-26.6-8.5-34.8-11.2c-4.1-1.3-7.3-2.3-9.5-3
										c-1.1-0.3-1.9-0.6-2.5-0.7c-0.6-0.2-0.8-0.2-0.9-0.2c0,0,0.3,0.1,0.8,0.3c0.6,0.2,1.4,0.5,2.4,0.8c2.2,0.7,5.4,1.8,9.4,3.1
										c8.2,2.7,20.1,6.5,34.8,11.2c29.5,9.3,70.1,22.2,115,36.4c44.9,14.2,85.6,27.1,114.9,36.6c14.7,4.8,26.6,8.7,34.7,11.4
										c4.1,1.4,7.3,2.5,9.4,3.2c2.1,0.8,3.2,1.2,3.2,1.3c0,0.1-1.2-0.2-3.4-0.8c-2.2-0.6-5.4-1.6-9.5-2.8
										c-8.3-2.5-20.2-6.3-34.9-11C389.1,281.4,348.6,268.3,303.8,253.6z"/>
								</g>
							</g>
						</g>
					</g>
				</g>
			</g>
		</g>
	</g>
	<g>
		<g>
			<g>
				<g>
					<g>
						<g>
							<g>
								<g>
									<path class="st0" d="M299.6,263.2c-41.9-21.3-79.7-40.5-107.2-54.5c-13.7-6.9-24.9-12.5-32.6-16.4
										c-3.8-1.9-6.8-3.4-8.9-4.4c-1-0.5-1.8-0.8-2.3-1.1c-0.5-0.2-0.8-0.4-0.8-0.3c0,0,0.2,0.2,0.8,0.4c0.5,0.3,1.3,0.7,2.3,1.2
										c2,1,5,2.6,8.8,4.5c7.7,3.9,18.8,9.5,32.6,16.4c27.6,13.7,65.6,32.6,107.7,53.5c42.1,20.9,80.1,39.8,107.6,53.7
										c13.7,6.9,24.8,12.6,32.5,16.6c3.8,2,6.8,3.5,8.8,4.6c2,1.1,3,1.7,3,1.8c0,0.1-1.1-0.4-3.2-1.3c-2.1-1-5.1-2.4-9-4.3
										c-7.7-3.8-18.9-9.3-32.7-16.2C379.3,303.7,341.4,284.5,299.6,263.2z"/>
								</g>
							</g>
						</g>
					</g>
				</g>
			</g>
		</g>
	</g>
	<g>
		<g>
			<g>
				<g>
					<g>
						<g>
							<g>
								<g>
									<path class="st0" d="M293.9,272c-37.9-27.4-72.2-52.1-97.1-70.1c-12.5-8.9-22.5-16.1-29.5-21.1c-3.5-2.5-6.2-4.4-8.1-5.7
										c-0.9-0.6-1.6-1.1-2.1-1.5c-0.5-0.3-0.7-0.5-0.7-0.5c0,0,0.2,0.2,0.7,0.6c0.5,0.4,1.2,0.9,2.1,1.5c1.9,1.3,4.5,3.3,8,5.8
										c7,5,17.1,12.2,29.5,21.1c25,17.7,59.6,42.2,97.8,69.2c38.2,27,72.7,51.5,97.6,69.4c12.4,8.9,22.5,16.2,29.4,21.3
										c3.5,2.5,6.1,4.5,7.9,5.9c1.8,1.4,2.7,2.1,2.7,2.2c-0.1,0.1-1.1-0.6-2.9-1.8c-1.9-1.3-4.6-3.1-8.2-5.6
										c-7-4.9-17.2-12-29.7-20.9C366.2,324.1,331.8,299.4,293.9,272z"/>
								</g>
							</g>
						</g>
					</g>
				</g>
			</g>
		</g>
	</g>
	<g>
		<g>
			<g>
				<g>
					<g>
						<g>
							<g>
								<g>
									<path class="st0" d="M286.9,279.8c-33.1-32.8-63-62.4-84.7-83.9c-10.9-10.7-19.7-19.3-25.8-25.3c-3.1-3-5.4-5.2-7.1-6.8
										c-0.8-0.8-1.4-1.3-1.9-1.8c-0.4-0.4-0.6-0.6-0.7-0.6c0,0,0.2,0.2,0.6,0.6c0.4,0.4,1,1,1.8,1.8c1.6,1.6,4,3.9,7,6.9
										c6.1,6,14.9,14.6,25.8,25.3c21.9,21.3,52.1,50.7,85.5,83.2c33.4,32.4,63.6,61.9,85.3,83.3c10.9,10.7,19.6,19.4,25.6,25.5
										c3,3,5.3,5.4,6.9,7c1.5,1.6,2.3,2.5,2.3,2.6c-0.1,0.1-1-0.7-2.6-2.2c-1.7-1.5-4.1-3.8-7.2-6.7c-6.2-5.9-15-14.5-26-25.2
										C349.9,342.2,319.9,312.6,286.9,279.8z"/>
								</g>
							</g>
						</g>
					</g>
				</g>
			</g>
		</g>
	</g>
	<g>
		<g>
			<g>
				<g>
					<g>
						<g>
							<g>
								<g>
									<path class="st0" d="M278.7,286.5c-27.4-37.4-52.3-71.2-70.3-95.7c-9-12.2-16.4-22.1-21.4-28.9c-2.5-3.4-4.5-6-5.9-7.8
										c-0.7-0.9-1.2-1.5-1.6-2c-0.4-0.5-0.5-0.7-0.6-0.7c0,0,0.1,0.3,0.5,0.7c0.4,0.5,0.8,1.2,1.5,2.1c1.3,1.8,3.3,4.5,5.8,7.9
										c5.1,6.9,12.4,16.7,21.4,28.9c18.2,24.4,43.4,58,71.1,95.1c27.8,37.1,52.9,70.7,71,95.2c9,12.2,16.3,22.1,21.2,29
										c2.5,3.4,4.4,6.1,5.7,8c1.3,1.8,1.9,2.8,1.8,2.9c-0.1,0-0.8-0.8-2.2-2.6c-1.4-1.8-3.4-4.4-6-7.7
										c-5.2-6.8-12.5-16.6-21.6-28.8C330.9,357.7,306.1,323.8,278.7,286.5z"/>
								</g>
							</g>
						</g>
					</g>
				</g>
			</g>
		</g>
	</g>
	<g>
		<g>
			<g>
				<g>
					<g>
						<g>
							<g>
								<g>
									<path class="st0" d="M269.5,291.8c-21.1-41.1-40.2-78.3-54-105.2c-7-13.4-12.6-24.3-16.5-31.8c-2-3.7-3.5-6.6-4.6-8.6
										c-0.5-1-0.9-1.7-1.2-2.2c-0.3-0.5-0.4-0.8-0.4-0.7c0,0,0.1,0.3,0.3,0.8c0.3,0.5,0.6,1.3,1.1,2.3c1,2,2.5,4.9,4.4,8.7
										c3.9,7.5,9.5,18.4,16.5,31.8c14.1,26.8,33.5,63.8,55,104.7c21.5,40.9,40.9,77.9,54.8,104.8c6.9,13.4,12.5,24.3,16.3,31.9
										c1.9,3.8,3.3,6.7,4.3,8.7c1,2,1.4,3.1,1.3,3.1c-0.1,0-0.7-1-1.8-2.9c-1.1-1.9-2.7-4.8-4.7-8.6c-4-7.5-9.7-18.3-16.7-31.7
										C309.7,370.1,290.6,332.9,269.5,291.8z"/>
								</g>
							</g>
						</g>
					</g>
				</g>
			</g>
		</g>
	</g>
	<g>
		<g>
			<g>
				<g>
					<g>
						<g>
							<g>
								<g>
									<path class="st0" d="M259.6,295.7c-14.2-43.8-27-83.4-36.3-112.2c-4.7-14.3-8.5-25.9-11.2-33.9c-1.3-4-2.4-7.1-3.1-9.2
										c-0.4-1-0.6-1.8-0.8-2.4c-0.2-0.5-0.3-0.8-0.3-0.8c0,0,0.1,0.3,0.2,0.8c0.2,0.6,0.4,1.4,0.7,2.4c0.7,2.1,1.7,5.3,3,9.3
										c2.6,8,6.4,19.6,11.1,33.9c9.6,28.6,22.8,68.2,37.3,111.8c14.6,43.6,27.8,83.2,37.1,111.9c4.7,14.3,8.4,26,10.9,34
										c1.3,4,2.2,7.2,2.8,9.3c0.6,2.1,0.9,3.3,0.8,3.3c-0.1,0-0.5-1.1-1.3-3.1c-0.8-2.1-1.9-5.2-3.2-9.2
										c-2.8-8-6.6-19.5-11.4-33.9C286.6,379.1,273.7,339.5,259.6,295.7z"/>
								</g>
							</g>
						</g>
					</g>
				</g>
			</g>
		</g>
	</g>
	<g>
		<g>
			<g>
				<g>
					<g>
						<g>
							<g>
								<g>
									<path class="st0" d="M249.2,298c-6.9-45.4-13.1-86.5-17.7-116.3c-2.3-14.9-4.2-26.9-5.5-35.2c-0.7-4.1-1.2-7.3-1.6-9.6
										c-0.2-1.1-0.3-1.9-0.4-2.5c-0.1-0.6-0.2-0.8-0.2-0.8c0,0,0,0.3,0.1,0.9c0.1,0.6,0.2,1.4,0.3,2.5c0.3,2.2,0.8,5.4,1.4,9.6
										c1.3,8.3,3.2,20.4,5.5,35.2c4.8,29.8,11.4,70.8,18.8,116.2c7.4,45.3,14,86.4,18.6,116.1c2.3,14.9,4.1,26.9,5.3,35.3
										c0.6,4.2,1,7.4,1.3,9.6c0.3,2.2,0.4,3.4,0.3,3.4c-0.1,0-0.3-1.1-0.8-3.3c-0.4-2.2-1-5.4-1.7-9.5
										c-1.4-8.3-3.4-20.3-5.8-35.2C262.3,384.5,256.1,343.4,249.2,298z"/>
								</g>
							</g>
						</g>
					</g>
				</g>
			</g>
		</g>
	</g>
	<g>
		<g>
			<g>
				<g>
					<g>
						<g>
							<g>
								<g>
									<path class="st0" d="M238.5,298.7c0.4-45.9,0.8-87.5,1.1-117.6c0.1-15,0.1-27.2,0.2-35.6c0-4.2,0-7.4,0-9.7
										c0-1.1,0-1.9,0-2.5c0-0.6,0-0.9,0-0.9c0,0,0,0.3-0.1,0.9c0,0.6,0,1.4-0.1,2.5c0,2.2-0.1,5.5-0.1,9.7
										c0,8.4-0.1,20.6-0.2,35.6c0,30.1,0,71.7,0,117.6c0,45.9,0,87.4-0.2,117.5c-0.1,15-0.2,27.2-0.4,35.6
										c-0.1,4.2-0.2,7.5-0.3,9.7c-0.1,2.2-0.2,3.4-0.3,3.4c-0.1,0-0.2-1.2-0.2-3.4c-0.1-2.2-0.1-5.5-0.2-9.7
										c-0.1-8.4-0.1-20.6-0.1-35.6C237.7,386.2,238.1,344.6,238.5,298.7z"/>
								</g>
							</g>
						</g>
					</g>
				</g>
			</g>
		</g>
	</g>
	<g>
		<g>
			<g>
				<g>
					<g>
						<g>
							<g>
								<g>
									<path class="st0" d="M227.9,297.8c7.8-45.3,14.8-86.3,19.9-116c2.5-14.8,4.5-26.8,5.8-35.2c0.7-4.1,1.2-7.4,1.5-9.6
										c0.2-1.1,0.3-1.9,0.4-2.5c0.1-0.6,0.1-0.9,0.1-0.9c0,0-0.1,0.3-0.2,0.8c-0.1,0.6-0.3,1.4-0.5,2.5c-0.4,2.2-0.9,5.4-1.7,9.6
										c-1.4,8.3-3.4,20.3-5.9,35.2c-4.8,29.8-11.5,70.8-18.8,116.1c-7.3,45.3-14,86.4-19,116.1c-2.5,14.8-4.6,26.8-6.1,35.1
										c-0.8,4.1-1.4,7.4-1.8,9.5c-0.4,2.2-0.7,3.3-0.8,3.3c-0.1,0,0-1.2,0.3-3.4c0.3-2.2,0.8-5.4,1.4-9.6
										c1.3-8.3,3.2-20.4,5.6-35.2C213.1,384.1,220.1,343.1,227.9,297.8z"/>
								</g>
							</g>
						</g>
					</g>
				</g>
			</g>
		</g>
	</g>
	<g>
		<g>
			<g>
				<g>
					<g>
						<g>
							<g>
								<g>
									<path class="st0" d="M217.5,295.3c15-43.5,28.6-82.9,38.4-111.5c4.8-14.3,8.8-25.8,11.5-33.8c1.3-4,2.3-7.1,3-9.2
										c0.3-1,0.6-1.8,0.8-2.4c0.2-0.5,0.2-0.8,0.2-0.8c0,0-0.1,0.3-0.3,0.8c-0.2,0.6-0.5,1.4-0.9,2.4c-0.7,2.1-1.8,5.2-3.2,9.2
										c-2.7,8-6.7,19.6-11.5,33.8c-9.6,28.6-22.8,68.2-37.4,111.8c-14.5,43.7-27.8,83.2-37.6,111.7c-4.9,14.3-8.9,25.8-11.7,33.8
										c-1.4,4-2.5,7.1-3.3,9.1c-0.8,2.1-1.2,3.2-1.3,3.1c-0.1,0,0.2-1.2,0.9-3.3c0.6-2.1,1.6-5.3,2.9-9.3
										c2.6-8,6.4-19.6,11.3-33.9C188.9,378.2,202.4,338.8,217.5,295.3z"/>
								</g>
							</g>
						</g>
					</g>
				</g>
			</g>
		</g>
	</g>
	<g>
		<g>
			<g>
				<g>
					<g>
						<g>
							<g>
								<g>
									<path class="st0" d="M207.6,291.2c21.9-40.7,41.7-77.5,56-104.2c7.1-13.4,12.8-24.2,16.8-31.7c1.9-3.7,3.5-6.6,4.5-8.6
										c0.5-1,0.9-1.7,1.1-2.3c0.3-0.5,0.4-0.8,0.4-0.8c0,0-0.2,0.2-0.5,0.7c-0.3,0.5-0.7,1.3-1.2,2.2c-1.1,2-2.6,4.9-4.6,8.6
										c-4,7.5-9.7,18.3-16.8,31.7c-14.1,26.8-33.5,63.8-55,104.7c-21.4,40.9-40.9,77.9-55.2,104.6c-7.1,13.4-13,24.1-17,31.6
										c-2,3.7-3.6,6.6-4.8,8.5c-1.1,1.9-1.7,2.9-1.8,2.9c-0.1,0,0.4-1.1,1.4-3.1c1-2,2.5-4.9,4.4-8.7c3.9-7.5,9.5-18.4,16.6-31.8
										C166,368.7,185.8,331.9,207.6,291.2z"/>
								</g>
							</g>
						</g>
					</g>
				</g>
			</g>
		</g>
	</g>
	<g>
		<g>
			<g>
				<g>
					<g>
						<g>
							<g>
								<g>
									<path class="st0" d="M198.6,285.7c28.1-36.9,53.6-70.2,72.1-94.4c9.1-12.1,16.6-21.9,21.7-28.7c2.5-3.4,4.5-6,5.8-7.9
										c0.6-0.9,1.1-1.6,1.5-2.1c0.3-0.5,0.5-0.7,0.5-0.7c0,0-0.2,0.2-0.6,0.7c-0.4,0.5-0.9,1.1-1.6,2c-1.4,1.8-3.4,4.4-6,7.8
										c-5.1,6.8-12.6,16.6-21.7,28.7c-18.2,24.4-43.4,57.9-71.2,95.1c-27.8,37.1-52.9,70.7-71.3,94.9
										c-9.2,12.1-16.7,21.9-21.9,28.6c-2.6,3.4-4.7,5.9-6.1,7.7c-1.4,1.7-2.2,2.6-2.3,2.6c-0.1,0,0.6-1,1.9-2.9
										c1.3-1.8,3.2-4.5,5.7-7.9c5-6.9,12.4-16.7,21.5-28.9C145,355.9,170.4,322.5,198.6,285.7z"/>
								</g>
							</g>
						</g>
					</g>
				</g>
			</g>
		</g>
	</g>
	<g>
		<g>
			<g>
				<g>
					<g>
						<g>
							<g>
								<g>
									<path class="st0" d="M190.5,278.9c33.7-32.2,64.2-61.3,86.3-82.4c11-10.6,19.9-19.1,26-25.1c3-3,5.4-5.3,7-6.9
										c0.8-0.8,1.4-1.4,1.8-1.8c0.4-0.4,0.6-0.6,0.6-0.6c0,0-0.2,0.2-0.7,0.6c-0.4,0.4-1.1,1-1.9,1.7c-1.7,1.6-4.1,3.8-7.1,6.8
										c-6.2,5.9-15.1,14.5-26,25.1c-21.9,21.3-52.1,50.7-85.5,83.1c-33.4,32.5-63.6,61.8-85.6,83c-11,10.6-20,19.1-26.2,24.9
										c-3.1,2.9-5.6,5.2-7.2,6.7c-1.7,1.5-2.6,2.3-2.6,2.2c-0.1-0.1,0.7-0.9,2.3-2.5c1.6-1.6,3.9-4,6.9-7
										c6.1-6,14.9-14.6,25.9-25.2C126.3,340.1,156.8,311,190.5,278.9z"/>
								</g>
							</g>
						</g>
					</g>
				</g>
			</g>
		</g>
	</g>
	<g>
		<g>
			<g>
				<g>
					<g>
						<g>
							<g>
								<g>
									<path class="st0" d="M183.7,270.9c38.4-26.7,73.2-50.8,98.4-68.3c12.5-8.8,22.7-15.9,29.7-20.9c3.5-2.5,6.2-4.4,8-5.7
										c0.9-0.7,1.6-1.2,2.1-1.5c0.5-0.3,0.7-0.5,0.7-0.5c0,0-0.3,0.1-0.7,0.5c-0.5,0.3-1.2,0.8-2.1,1.4c-1.9,1.3-4.6,3.2-8.1,5.6
										c-7,4.9-17.2,12-29.7,20.8c-25,17.7-59.6,42.2-97.8,69.2c-38.1,27-72.7,51.5-97.9,69c-12.6,8.8-22.8,15.8-29.9,20.7
										c-3.5,2.4-6.3,4.3-8.2,5.5c-1.9,1.2-2.9,1.8-3,1.8c-0.1-0.1,0.9-0.8,2.7-2.2c1.8-1.4,4.5-3.3,8-5.8
										c6.9-5,17.1-12.2,29.6-21C110.4,321.7,145.2,297.5,183.7,270.9z"/>
								</g>
							</g>
						</g>
					</g>
				</g>
			</g>
		</g>
	</g>
	<g>
		<g>
			<g>
				<g>
					<g>
						<g>
							<g>
								<g>
									<path class="st0" d="M178.2,262c42.3-20.5,80.5-39.1,108.2-52.5c13.8-6.8,25-12.3,32.7-16.1c3.8-1.9,6.8-3.4,8.9-4.4
										c1-0.5,1.7-0.9,2.3-1.2c0.5-0.3,0.8-0.4,0.8-0.4c0,0-0.3,0.1-0.8,0.3c-0.6,0.3-1.3,0.6-2.3,1.1c-2.1,1-5.1,2.4-8.9,4.3
										c-7.8,3.8-18.9,9.3-32.7,16.1c-27.6,13.7-65.7,32.6-107.7,53.5c-42,20.9-80.1,39.8-107.8,53.3c-13.8,6.8-25,12.2-32.8,15.9
										c-3.9,1.8-6.9,3.3-9,4.2c-2.1,0.9-3.2,1.4-3.2,1.3c0-0.1,1-0.7,3-1.7c2-1.1,5-2.6,8.8-4.6c7.7-3.9,18.8-9.5,32.6-16.3
										C97.7,301.1,135.9,282.5,178.2,262z"/>
								</g>
							</g>
						</g>
					</g>
				</g>
			</g>
		</g>
	</g>
	<g>
		<g>
			<g>
				<g>
					<g>
						<g>
							<g>
								<g>
									<path class="st0" d="M174.2,252.4c45.1-13.8,85.8-26.3,115.4-35.3c14.7-4.6,26.6-8.3,34.9-10.9c4.1-1.3,7.3-2.3,9.5-3
										c1.1-0.4,1.9-0.6,2.5-0.8c0.6-0.2,0.8-0.3,0.8-0.3c0,0-0.3,0.1-0.9,0.2c-0.6,0.2-1.4,0.4-2.5,0.7c-2.2,0.7-5.4,1.6-9.5,2.9
										c-8.3,2.6-20.2,6.3-34.9,10.9c-29.5,9.3-70.1,22.2-115,36.4c-44.9,14.2-85.6,27-115.1,36.2c-14.7,4.6-26.7,8.2-35,10.6
										c-4.1,1.2-7.4,2.2-9.6,2.8c-2.2,0.6-3.4,0.9-3.4,0.8c0-0.1,1.1-0.5,3.2-1.3c2.1-0.7,5.3-1.8,9.4-3.2
										c8.2-2.7,20.1-6.5,34.8-11.1C88.3,278.6,129.1,266.1,174.2,252.4z"/>
								</g>
							</g>
						</g>
					</g>
				</g>
			</g>
		</g>
	</g>
	<g>
		<g>
			<g>
				<g>
					<g>
						<g>
							<g>
								<g>
									<path class="st0" d="M171.8,242.2c46.7-6.7,89-12.8,119.7-17.3c15.3-2.3,27.6-4.1,36.2-5.4c4.3-0.7,7.6-1.2,9.8-1.5
										c1.1-0.2,1.9-0.3,2.6-0.4c0.6-0.1,0.9-0.2,0.9-0.2c0,0-0.3,0-0.9,0.1c-0.6,0.1-1.5,0.2-2.6,0.3c-2.3,0.3-5.6,0.8-9.9,1.4
										c-8.6,1.3-21,3.1-36.2,5.4c-30.6,4.7-72.8,11.2-119.5,18.3C125.2,250.1,83,256.5,52.4,261c-15.3,2.2-27.7,4-36.3,5.2
										c-4.3,0.6-7.6,1-9.9,1.3c-2.3,0.3-3.5,0.4-3.5,0.3c0-0.1,1.2-0.3,3.4-0.8c2.2-0.4,5.6-1,9.8-1.7c8.5-1.4,20.9-3.3,36.2-5.6
										C82.8,255.1,125.1,248.9,171.8,242.2z"/>
								</g>
							</g>
						</g>
					</g>
				</g>
			</g>
		</g>
	</g>
	<g>
		<g>
			<g>
				<g>
					<g>
						<g>
							<g>
								<g>
									<path class="st0" d="M171,231.9c47.2,0.4,90,0.7,121,1c15.5,0.1,28,0.1,36.7,0.1c4.3,0,7.7,0,10,0c1.1,0,2,0,2.6,0
										c0.6,0,0.9,0,0.9,0c0,0-0.3,0-0.9-0.1c-0.6,0-1.5,0-2.6-0.1c-2.3,0-5.7-0.1-10-0.1c-8.7,0-21.2-0.1-36.7-0.1
										c-31,0-73.7,0-121,0.1c-47.2,0.1-90,0.1-120.9-0.1c-15.5-0.1-28-0.2-36.7-0.4c-4.3-0.1-7.7-0.2-10-0.2
										c-2.3-0.1-3.5-0.2-3.5-0.3c0-0.1,1.2-0.2,3.5-0.2c2.3-0.1,5.6-0.1,10-0.2c8.7-0.1,21.2-0.1,36.7-0.1
										C81.1,231.1,123.8,231.4,171,231.9z"/>
								</g>
							</g>
						</g>
					</g>
				</g>
			</g>
		</g>
	</g>
	<g>
		<g>
			<g>
				<g>
					<g>
						<g>
							<g>
								<g>
									<path class="st0" d="M172,221.5c46.6,7.5,88.8,14.3,119.3,19.2c15.3,2.4,27.6,4.3,36.2,5.7c4.3,0.6,7.6,1.1,9.9,1.5
										c1.1,0.2,2,0.3,2.6,0.4c0.6,0.1,0.9,0.1,0.9,0.1c0,0-0.3-0.1-0.9-0.2c-0.6-0.1-1.5-0.3-2.6-0.4c-2.3-0.4-5.6-0.9-9.8-1.6
										c-8.6-1.3-20.9-3.3-36.2-5.7c-30.6-4.7-72.8-11.1-119.5-18.2c-46.7-7.1-88.9-13.5-119.4-18.4c-15.3-2.4-27.6-4.4-36.2-5.9
										c-4.3-0.7-7.6-1.3-9.8-1.7c-2.2-0.4-3.4-0.7-3.4-0.8c0-0.1,1.2,0,3.5,0.3c2.3,0.3,5.6,0.7,9.9,1.3
										c8.6,1.2,20.9,3.1,36.2,5.4C83.2,207.2,125.4,213.9,172,221.5z"/>
								</g>
							</g>
						</g>
					</g>
				</g>
			</g>
		</g>
	</g>
	<g>
		<g>
			<g>
				<g>
					<g>
						<g>
							<g>
								<g>
									<path class="st0" d="M174.5,211.4c44.8,14.6,85.3,27.7,114.7,37.3c14.7,4.7,26.6,8.5,34.8,11.1c4.1,1.3,7.3,2.3,9.5,3
										c1.1,0.3,1.9,0.6,2.5,0.7c0.6,0.2,0.9,0.2,0.9,0.2c0,0-0.3-0.1-0.8-0.3c-0.6-0.2-1.4-0.5-2.4-0.8c-2.2-0.7-5.4-1.8-9.4-3.1
										c-8.3-2.6-20.1-6.5-34.8-11.2c-29.5-9.3-70.1-22.1-115.1-36.2c-44.9-14.1-85.6-27-115-36.4c-14.7-4.7-26.6-8.6-34.7-11.4
										c-4.1-1.4-7.3-2.5-9.4-3.2c-2.1-0.8-3.3-1.2-3.2-1.3c0-0.1,1.2,0.2,3.4,0.8c2.2,0.6,5.4,1.6,9.5,2.8
										c8.3,2.5,20.2,6.2,34.9,10.9C89.2,183.7,129.8,196.8,174.5,211.4z"/>
								</g>
							</g>
						</g>
					</g>
				</g>
			</g>
		</g>
	</g>
	<g>
		<g>
			<g>
				<g>
					<g>
						<g>
							<g>
								<g>
									<path class="st0" d="M178.7,201.8c41.9,21.2,79.8,40.4,107.3,54.4c13.7,6.9,24.9,12.4,32.6,16.3c3.8,1.9,6.8,3.4,8.9,4.4
										c1,0.5,1.8,0.8,2.3,1.1c0.5,0.2,0.8,0.4,0.8,0.3s-0.2-0.2-0.8-0.4c-0.5-0.3-1.3-0.7-2.3-1.2c-2-1-5-2.6-8.8-4.5
										c-7.7-3.9-18.8-9.5-32.6-16.3c-27.6-13.7-65.7-32.6-107.8-53.4c-42.1-20.8-80.2-39.7-107.6-53.6
										C57,142,45.9,136.3,38.3,132.4c-3.8-2-6.8-3.5-8.8-4.6c-2-1.1-3-1.7-3-1.8c0-0.1,1.1,0.4,3.2,1.3c2.1,0.9,5.1,2.4,9,4.3
										c7.8,3.7,18.9,9.3,32.7,16.1C98.9,161.4,136.9,180.6,178.7,201.8z"/>
								</g>
							</g>
						</g>
					</g>
				</g>
			</g>
		</g>
	</g>
	<g>
		<g>
			<g>
				<g>
					<g>
						<g>
							<g>
								<g>
									<path class="st0" d="M184.4,193c38,27.3,72.3,52.1,97.2,70c12.5,8.9,22.6,16.1,29.6,21.1c3.5,2.4,6.2,4.4,8.1,5.7
										c0.9,0.6,1.6,1.1,2.1,1.5c0.5,0.3,0.7,0.5,0.7,0.5c0,0-0.2-0.2-0.7-0.6c-0.5-0.4-1.2-0.9-2.1-1.5c-1.9-1.3-4.5-3.3-8-5.8
										c-7-5-17.1-12.2-29.6-21.1c-25.1-17.7-59.6-42.1-97.9-69.1c-38.2-26.9-72.8-51.4-97.7-69.3c-12.5-8.9-22.5-16.2-29.4-21.3
										c-3.5-2.5-6.1-4.5-7.9-5.9c-1.8-1.4-2.7-2.1-2.7-2.2c0.1-0.1,1.1,0.6,2.9,1.8c1.9,1.2,4.6,3.1,8.2,5.6
										c7.1,4.9,17.2,12,29.7,20.9C112.1,141,146.5,165.7,184.4,193z"/>
								</g>
							</g>
						</g>
					</g>
				</g>
			</g>
		</g>
	</g>
	<g>
		<g>
			<g>
				<g>
					<g>
						<g>
							<g>
								<g>
									<path class="st0" d="M191.4,185.2c33.1,32.7,63.1,62.4,84.8,83.8c10.9,10.7,19.7,19.3,25.8,25.3c3.1,2.9,5.4,5.2,7.1,6.8
										c0.8,0.8,1.4,1.3,1.9,1.8c0.4,0.4,0.6,0.6,0.7,0.6c0,0-0.2-0.2-0.6-0.6c-0.4-0.4-1-1-1.8-1.8c-1.6-1.6-4-3.9-7-6.9
										c-6.1-6-14.9-14.6-25.8-25.3c-21.9-21.3-52.2-50.6-85.6-83.1c-33.4-32.4-63.7-61.8-85.4-83.2
										C94.6,91.8,85.9,83.1,79.8,77.1c-3-3-5.3-5.4-6.9-7c-1.5-1.6-2.3-2.5-2.3-2.6c0.1-0.1,1,0.7,2.6,2.2
										c1.7,1.5,4.1,3.8,7.2,6.7c6.2,5.9,15.1,14.5,26,25.1C128.3,122.9,158.3,152.5,191.4,185.2z"/>
								</g>
							</g>
						</g>
					</g>
				</g>
			</g>
		</g>
	</g>
	<g>
		<g>
			<g>
				<g>
					<g>
						<g>
							<g>
								<g>
									<path class="st0" d="M199.6,178.5c27.5,37.3,52.4,71.1,70.4,95.6c9.1,12.2,16.4,22,21.5,28.9c2.5,3.4,4.5,6,5.9,7.8
										c0.7,0.9,1.2,1.5,1.6,2c0.4,0.5,0.5,0.7,0.6,0.7c0,0-0.1-0.3-0.5-0.7c-0.4-0.5-0.8-1.2-1.5-2.1c-1.3-1.8-3.3-4.5-5.8-7.9
										c-5.1-6.8-12.4-16.7-21.5-28.9c-18.3-24.3-43.4-57.9-71.3-95c-27.8-37.1-53-70.7-71.1-95.1c-9-12.2-16.3-22.1-21.3-29
										c-2.5-3.4-4.4-6.1-5.7-8C99.8,45,99.1,44,99.2,44c0.1,0,0.8,0.8,2.2,2.6c1.4,1.8,3.4,4.4,6,7.7
										c5.2,6.8,12.6,16.6,21.7,28.7C147.3,107.4,172.2,141.2,199.6,178.5z"/>
								</g>
							</g>
						</g>
					</g>
				</g>
			</g>
		</g>
	</g>
	<g>
		<g>
			<g>
				<g>
					<g>
						<g>
							<g>
								<g>
									<path class="st0" d="M208.8,173.2c21.1,41.1,40.3,78.2,54.1,105.2c7,13.4,12.6,24.3,16.6,31.8c2,3.7,3.5,6.6,4.6,8.6
										c0.5,1,0.9,1.7,1.2,2.2c0.3,0.5,0.4,0.8,0.4,0.7c0,0-0.1-0.3-0.3-0.8c-0.3-0.5-0.6-1.3-1.1-2.3c-1-2-2.5-4.9-4.4-8.7
										c-3.9-7.5-9.6-18.4-16.5-31.8c-14.1-26.8-33.6-63.8-55.1-104.7c-21.5-40.8-41-77.8-54.9-104.7c-7-13.4-12.5-24.3-16.3-31.9
										c-1.9-3.8-3.4-6.7-4.3-8.7c-1-2-1.4-3.1-1.3-3.1c0.1,0,0.7,1,1.8,2.9c1.1,1.9,2.7,4.8,4.7,8.6c4,7.5,9.7,18.3,16.8,31.7
										C168.5,95,187.7,132.1,208.8,173.2z"/>
								</g>
							</g>
						</g>
					</g>
				</g>
			</g>
		</g>
	</g>
	<g>
		<g>
			<g>
				<g>
					<g>
						<g>
							<g>
								<g>
									<path class="st0" d="M218.7,169.3c14.2,43.8,27.1,83.4,36.4,112.1c4.7,14.3,8.6,25.9,11.2,33.9c1.3,4,2.4,7.1,3.1,9.2
										c0.4,1,0.6,1.8,0.8,2.4c0.2,0.5,0.3,0.8,0.3,0.8c0,0-0.1-0.3-0.2-0.8c-0.2-0.6-0.4-1.4-0.7-2.4c-0.7-2.1-1.7-5.3-3-9.2
										c-2.7-8-6.5-19.6-11.2-33.9c-9.6-28.6-22.8-68.1-37.5-111.8c-14.7-43.6-27.9-83.1-37.3-111.8c-4.7-14.3-8.4-25.9-11-34
										c-1.3-4-2.2-7.2-2.8-9.3c-0.6-2.1-0.9-3.3-0.8-3.3c0.1,0,0.5,1.1,1.3,3.1c0.8,2.1,1.9,5.2,3.2,9.2
										c2.8,8,6.7,19.5,11.4,33.9C191.6,85.9,204.5,125.5,218.7,169.3z"/>
								</g>
							</g>
						</g>
					</g>
				</g>
			</g>
		</g>
	</g>
	<g>
		<g>
			<g>
				<g>
					<g>
						<g>
							<g>
								<g>
									<path class="st0" d="M229.1,166.9c7,45.4,13.3,86.5,17.8,116.3c2.4,14.8,4.3,26.9,5.6,35.2c0.7,4.1,1.2,7.3,1.6,9.6
										c0.2,1.1,0.3,1.9,0.4,2.5c0.1,0.6,0.2,0.8,0.2,0.8c0,0,0-0.3-0.1-0.9c-0.1-0.6-0.2-1.4-0.3-2.5c-0.3-2.2-0.8-5.4-1.4-9.6
										c-1.3-8.3-3.2-20.4-5.6-35.2c-4.8-29.7-11.5-70.8-18.9-116.1c-7.4-45.3-14.1-86.4-18.7-116.1c-2.3-14.9-4.1-26.9-5.3-35.3
										c-0.6-4.2-1-7.4-1.3-9.6c-0.3-2.2-0.4-3.4-0.3-3.4c0.1,0,0.4,1.1,0.8,3.3c0.4,2.2,1,5.4,1.7,9.5c1.4,8.3,3.4,20.3,5.8,35.2
										C215.8,80.5,222.2,121.5,229.1,166.9z"/>
								</g>
							</g>
						</g>
					</g>
				</g>
			</g>
		</g>
	</g>
	<g>
		<g>
			<g>
				<g>
					<g>
						<g>
							<g>
								<g>
									<path class="st0" d="M239.8,166.2c-0.4,45.9-0.7,87.5-0.9,117.6c0,15-0.1,27.2-0.1,35.6c0,4.2,0,7.4,0,9.7
										c0,1.1,0,1.9,0,2.5c0,0.6,0,0.9,0,0.9c0,0,0-0.3,0.1-0.9c0-0.6,0-1.4,0.1-2.5c0-2.2,0.1-5.5,0.1-9.7
										c0-8.4,0.1-20.6,0.1-35.6c0-30.1-0.1-71.7-0.1-117.6c-0.1-45.9-0.1-87.4,0.1-117.5c0.1-15,0.2-27.2,0.4-35.6
										c0.1-4.2,0.2-7.5,0.2-9.7c0.1-2.2,0.2-3.4,0.3-3.4c0.1,0,0.2,1.2,0.2,3.4c0.1,2.2,0.1,5.5,0.2,9.7
										c0.1,8.4,0.1,20.6,0.1,35.6C240.5,78.8,240.2,120.3,239.8,166.2z"/>
								</g>
							</g>
						</g>
					</g>
				</g>
			</g>
		</g>
	</g>
	<g>
		<g>
			<g>
				<g>
					<g>
						<g>
							<g>
								<g>
									<path class="st0" d="M250.4,167.1c-7.7,45.3-14.7,86.3-19.7,116c-2.4,14.8-4.4,26.8-5.8,35.2c-0.6,4.1-1.2,7.4-1.5,9.6
										c-0.2,1.1-0.3,1.9-0.4,2.5c-0.1,0.6-0.1,0.9-0.1,0.9c0,0,0.1-0.3,0.2-0.8c0.1-0.6,0.3-1.4,0.5-2.5c0.4-2.2,0.9-5.4,1.7-9.6
										c1.4-8.3,3.4-20.3,5.8-35.2c4.8-29.8,11.4-70.8,18.6-116.2c7.2-45.3,13.9-86.4,18.8-116.1c2.5-14.8,4.6-26.9,6.1-35.1
										c0.7-4.1,1.4-7.4,1.8-9.5c0.4-2.2,0.7-3.3,0.8-3.3c0.1,0,0,1.2-0.3,3.4c-0.3,2.2-0.7,5.4-1.4,9.6
										c-1.2,8.3-3.2,20.4-5.6,35.2C265.1,80.8,258.2,121.8,250.4,167.1z"/>
								</g>
							</g>
						</g>
					</g>
				</g>
			</g>
		</g>
	</g>
	<g>
		<g>
			<g>
				<g>
					<g>
						<g>
							<g>
								<g>
									<path class="st0" d="M260.8,169.6c-14.9,43.6-28.5,83-38.3,111.5c-4.8,14.3-8.7,25.8-11.4,33.9c-1.3,4-2.3,7.1-3,9.2
										c-0.3,1-0.6,1.8-0.8,2.4c-0.2,0.5-0.2,0.8-0.2,0.8c0,0,0.1-0.3,0.3-0.8c0.2-0.6,0.5-1.4,0.9-2.4c0.7-2.1,1.8-5.2,3.2-9.2
										c2.7-8,6.6-19.6,11.5-33.8c9.5-28.7,22.7-68.2,37.2-111.9c14.5-43.7,27.7-83.2,37.4-111.8c4.9-14.3,8.8-25.8,11.7-33.8
										c1.4-4,2.5-7.1,3.3-9.1c0.8-2.1,1.2-3.2,1.3-3.1c0.1,0-0.2,1.2-0.8,3.3c-0.6,2.1-1.6,5.3-2.9,9.3
										c-2.6,8-6.4,19.6-11.2,33.9C289.3,86.7,275.8,126.1,260.8,169.6z"/>
								</g>
							</g>
						</g>
					</g>
				</g>
			</g>
		</g>
	</g>
	<g>
		<g>
			<g>
				<g>
					<g>
						<g>
							<g>
								<g>
									<path class="st0" d="M270.7,173.7c-21.8,40.7-41.6,77.6-55.9,104.3c-7.1,13.4-12.8,24.2-16.8,31.7
										c-1.9,3.7-3.5,6.6-4.5,8.6c-0.5,1-0.9,1.7-1.1,2.3c-0.3,0.5-0.4,0.8-0.4,0.8c0,0,0.2-0.2,0.5-0.7c0.3-0.5,0.7-1.3,1.2-2.2
										c1.1-2,2.6-4.9,4.6-8.6c4-7.5,9.7-18.3,16.8-31.7c14.1-26.8,33.5-63.9,54.9-104.8c21.4-40.9,40.8-77.9,55-104.6
										c7.1-13.4,12.9-24.1,17-31.6c2-3.7,3.6-6.6,4.7-8.5c1.1-1.9,1.7-2.9,1.8-2.9c0.1,0-0.4,1.1-1.4,3.1c-1,2-2.4,4.9-4.4,8.7
										c-3.9,7.5-9.5,18.4-16.6,31.8C312.2,96.1,292.5,133,270.7,173.7z"/>
								</g>
							</g>
						</g>
					</g>
				</g>
			</g>
		</g>
	</g>
	<g>
		<g>
			<g>
				<g>
					<g>
						<g>
							<g>
								<g>
									<path class="st0" d="M279.7,179.2c-28.1,36.9-53.5,70.3-71.9,94.5c-9.1,12.1-16.5,21.9-21.7,28.7c-2.5,3.4-4.5,6-5.8,7.9
										c-0.6,0.9-1.1,1.6-1.5,2.1c-0.3,0.5-0.5,0.7-0.5,0.7c0,0,0.2-0.2,0.6-0.7c0.4-0.5,0.9-1.1,1.6-2c1.4-1.8,3.4-4.4,6-7.8
										c5.1-6.8,12.5-16.6,21.7-28.7c18.2-24.4,43.3-58,71.1-95.2c27.7-37.2,52.8-70.8,71.2-95c9.2-12.1,16.6-21.9,21.9-28.6
										c2.6-3.4,4.7-6,6.1-7.7c1.4-1.7,2.2-2.6,2.3-2.6c0.1,0-0.6,1-1.9,2.9c-1.3,1.8-3.2,4.5-5.7,7.9c-5,6.9-12.4,16.7-21.5,28.9
										C333.2,108.9,307.8,142.3,279.7,179.2z"/>
								</g>
							</g>
						</g>
					</g>
				</g>
			</g>
		</g>
	</g>
	<g>
		<g>
			<g>
				<g>
					<g>
						<g>
							<g>
								<g>
									<path class="st0" d="M287.8,186c-33.7,32.2-64.1,61.4-86.2,82.5c-11,10.6-19.8,19.2-26,25.1c-3,3-5.4,5.3-7,6.9
										c-0.8,0.8-1.4,1.4-1.8,1.8c-0.4,0.4-0.6,0.6-0.6,0.6c0,0,0.2-0.2,0.7-0.6c0.4-0.4,1.1-1,1.9-1.7c1.7-1.6,4-3.8,7.1-6.8
										c6.2-6,15-14.5,26-25.1c21.9-21.3,52.1-50.7,85.4-83.3c33.3-32.5,63.5-61.9,85.5-83.1c11-10.6,19.9-19.1,26.2-24.9
										c3.1-2.9,5.5-5.2,7.2-6.7c1.7-1.5,2.6-2.3,2.6-2.2c0.1,0.1-0.7,0.9-2.3,2.6c-1.6,1.6-3.9,4-6.9,7
										c-6.1,6-14.9,14.7-25.8,25.3C351.9,124.7,321.5,153.8,287.8,186z"/>
								</g>
							</g>
						</g>
					</g>
				</g>
			</g>
		</g>
	</g>
	<g>
		<g>
			<g>
				<g>
					<g>
						<g>
							<g>
								<g>
									<path class="st0" d="M294.7,194c-38.4,26.7-73.2,50.9-98.4,68.5c-12.5,8.8-22.7,15.9-29.7,20.9c-3.5,2.5-6.2,4.4-8,5.7
										c-0.9,0.7-1.6,1.2-2.1,1.5c-0.5,0.3-0.7,0.5-0.7,0.5c0,0,0.3-0.1,0.7-0.5c0.5-0.3,1.2-0.8,2.1-1.4c1.9-1.3,4.6-3.2,8.1-5.6
										c7-4.9,17.2-12.1,29.7-20.9c25-17.8,59.6-42.3,97.7-69.3c38.1-27.1,72.7-51.6,97.8-69.1c12.6-8.8,22.8-15.9,29.8-20.7
										c3.5-2.4,6.3-4.3,8.2-5.5c1.9-1.2,2.9-1.9,3-1.8c0.1,0.1-0.9,0.8-2.7,2.2c-1.8,1.4-4.5,3.3-8,5.8c-6.9,5-17,12.2-29.6,21.1
										C367.8,143.1,333.1,167.3,294.7,194z"/>
								</g>
							</g>
						</g>
					</g>
				</g>
			</g>
		</g>
	</g>
	<g>
		<g>
			<g>
				<g>
					<g>
						<g>
							<g>
								<g>
									<path class="st0" d="M300.2,202.9c-42.2,20.6-80.5,39.2-108.2,52.7c-13.8,6.8-24.9,12.3-32.7,16.1
										c-3.8,1.9-6.8,3.4-8.9,4.4c-1,0.5-1.7,0.9-2.3,1.2c-0.5,0.3-0.8,0.4-0.8,0.4c0,0,0.3-0.1,0.8-0.3c0.6-0.3,1.3-0.6,2.3-1.1
										c2.1-1,5.1-2.4,8.9-4.3c7.8-3.8,18.9-9.3,32.7-16.1c27.6-13.7,65.6-32.7,107.7-53.6c42-21,80.1-39.9,107.7-53.4
										c13.8-6.8,25-12.2,32.8-15.9c3.9-1.8,6.9-3.3,9-4.2c2.1-0.9,3.2-1.4,3.2-1.3c0,0.1-1,0.7-3,1.7c-2,1.1-5,2.6-8.8,4.6
										c-7.7,3.9-18.8,9.5-32.6,16.3C380.6,163.7,342.4,182.3,300.2,202.9z"/>
								</g>
							</g>
						</g>
					</g>
				</g>
			</g>
		</g>
	</g>
	<g>
		<g>
			<g>
				<g>
					<g>
						<g>
							<g>
								<g>
									<path class="st0" d="M304.2,212.5c-45,13.9-85.8,26.4-115.3,35.5c-14.7,4.6-26.6,8.3-34.9,10.9c-4.1,1.3-7.3,2.3-9.5,3
										c-1.1,0.4-1.9,0.6-2.5,0.8c-0.6,0.2-0.8,0.3-0.8,0.3c0,0,0.3-0.1,0.9-0.2c0.6-0.2,1.4-0.4,2.5-0.7c2.2-0.7,5.4-1.6,9.5-2.9
										c8.3-2.6,20.2-6.3,34.9-10.9c29.5-9.4,70.1-22.3,115-36.5c44.9-14.3,85.5-27.2,115-36.3c14.7-4.6,26.7-8.2,35-10.7
										c4.1-1.2,7.4-2.2,9.6-2.8c2.2-0.6,3.4-0.9,3.4-0.8c0,0.1-1.1,0.5-3.2,1.3c-2.1,0.8-5.3,1.8-9.4,3.2
										c-8.2,2.7-20.1,6.5-34.8,11.1C390,186.1,349.2,198.7,304.2,212.5z"/>
								</g>
							</g>
						</g>
					</g>
				</g>
			</g>
		</g>
	</g>
	<g>
		<g>
			<g>
				<g>
					<g>
						<g>
							<g>
								<g>
									<path class="st0" d="M306.6,222.6c-46.7,6.8-89,12.9-119.6,17.4c-15.3,2.3-27.6,4.2-36.2,5.4c-4.2,0.7-7.6,1.2-9.8,1.6
										c-1.1,0.2-1.9,0.3-2.6,0.4c-0.6,0.1-0.9,0.2-0.9,0.2c0,0,0.3,0,0.9-0.1c0.6-0.1,1.5-0.2,2.6-0.3c2.3-0.3,5.6-0.8,9.9-1.4
										c8.6-1.3,21-3.1,36.2-5.4c30.6-4.7,72.8-11.3,119.5-18.5c46.6-7.2,88.9-13.7,119.5-18.3c15.3-2.3,27.7-4,36.3-5.2
										c4.3-0.6,7.6-1,9.9-1.3c2.3-0.3,3.5-0.4,3.5-0.3c0,0.1-1.2,0.3-3.4,0.8c-2.2,0.4-5.6,1-9.8,1.7c-8.5,1.4-20.9,3.3-36.2,5.7
										C395.6,209.7,353.3,215.9,306.6,222.6z"/>
								</g>
							</g>
						</g>
					</g>
				</g>
			</g>
		</g>
	</g>
</g>
<polygon class="st1" points="340.5,79.7 358.2,58.1 351,55.4 356.6,39.6 340.5,58.2 348.8,60.6 "/>
<polygon class="st1" points="397.1,264.3 413.8,286.6 418.2,280.3 432.2,289.5 418,269.4 413.6,276.9 "/>
<polygon class="st1" points="94.1,76 111.9,128.2 124.1,119 144.6,144.8 130.1,98.4 117.5,109.8 "/>
<polygon class="st1" points="228.4,373.5 240.4,330.5 228,331.1 226.2,304.5 214.5,342.1 228.2,340.3 "/>
<polygon class="st1" points="168.7,83.8 168.6,103.9 173.9,102.2 177.9,113.6 178.5,95.9 172.7,98.3 "/>
<polygon class="st1" points="78.4,143.6 91.1,159.2 94.1,154.5 104.4,160.7 93.6,146.7 90.7,152.2 "/>
<polygon class="st1" points="265.4,309.3 265.3,329.4 270.6,327.7 274.6,339.1 275.2,321.3 269.4,323.7 "/>
<g>
	<g>
		<ellipse transform="matrix(0.9613 -0.2756 0.2756 0.9613 -68.3291 32.863)" class="st2" cx="82.8" cy="259.6" rx="34" ry="37.5"/>
		<ellipse transform="matrix(0.9436 -0.3311 0.3311 0.9436 -80.8175 44.7672)" class="st3" cx="91" cy="259.6" rx="30.5" ry="51"/>
		
			<ellipse transform="matrix(0.9436 -0.3311 0.3311 0.9436 -68.8808 67.3856)" class="st3" cx="163.3" cy="235.9" rx="35.6" ry="55.9"/>
		<path class="st3" d="M174.4,373.9c-12.6-25.9-8.6-67.2-8.6-67.2s-1-7.6,0-10.7c1-3.1,16.1-7.4,16.1-7.4l-35.8-105.8l-74.9,30
			l23.9,95c0,0,3.8,36.9,6.4,53.6c2.6,16.7,6.3,40.3,9.7,49.2c3.4,8.9,19.1,9.9,27.5,11c8.4,1,40-14.4,43.3-19.1
			C185.1,397.7,187,399.8,174.4,373.9z"/>
		
			<ellipse transform="matrix(0.9436 -0.3311 0.3311 0.9436 -68.8808 67.3856)" class="st4" cx="163.3" cy="235.9" rx="35.6" ry="55.9"/>
		<path class="st1" d="M144.3,189.6c0,0,36.9-21.8,55.9-43.5c15.5-17.7,36.8-47.4,36.8-47.4l97.9,205.5c0,0-50.9-19.5-97.9-19.9
			c-44.8-0.4-61.6-0.1-61.6-0.1L144.3,189.6z"/>
		
			<ellipse transform="matrix(0.9436 -0.3311 0.3311 0.9436 -68.7579 67.583)" class="st1" cx="164" cy="235.6" rx="27.9" ry="50.3"/>
		<g class="st4">
			<path class="st5" d="M141.6,254.3c34.6-20.9,71.9-37.6,113.4-32.5c-10.3-23.8-16.6-49.3-18.5-75.1
				c-26.3,35.9-60.1,68.8-103.2,79.8c0,0,1.7,10.9,3.5,15.9C138.5,247.3,141.6,254.3,141.6,254.3z"/>
		</g>
		<g>
			<path class="st6" d="M150.5,394.3c-0.7,0.2-1.3,0.4-2,0.7C149.2,394.8,149.9,394.6,150.5,394.3z"/>
			<path class="st6" d="M146.9,395.6c-0.7,0.2-1.3,0.5-2,0.7C145.6,396.1,146.2,395.8,146.9,395.6z"/>
			<path class="st6" d="M143.3,396.9c-0.7,0.3-1.4,0.5-2.1,0.8C141.9,397.4,142.6,397.1,143.3,396.9z"/>
			<path class="st6" d="M154.2,393.1c-0.7,0.2-1.3,0.4-2,0.7C152.8,393.6,153.5,393.4,154.2,393.1z"/>
			<path class="st6" d="M162.7,390.5c-1.1,0.3-2.3,0.7-3.4,1C160.4,391.2,161.6,390.9,162.7,390.5z"/>
			<path class="st6" d="M157.9,392c-0.7,0.2-1.4,0.4-2.1,0.7C156.5,392.4,157.2,392.2,157.9,392z"/>
			<path class="st6" d="M131.2,401.7c-0.7,0.3-1.5,0.6-2.2,1C129.7,402.3,130.5,402,131.2,401.7z"/>
			<path class="st6" d="M120.3,406.7c-0.7,0.3-1.3,0.7-2,1C119,407.3,119.7,407,120.3,406.7z"/>
			<path class="st6" d="M139.7,398.2c-0.9,0.3-1.7,0.7-2.6,1C138,398.9,138.8,398.6,139.7,398.2z"/>
			<path class="st6" d="M123.9,405c-0.7,0.3-1.3,0.6-2,0.9C122.5,405.6,123.2,405.3,123.9,405z"/>
			<path class="st6" d="M116.8,408.5c-0.7,0.4-1.4,0.7-2,1.1C115.5,409.2,116.1,408.8,116.8,408.5z"/>
			<path class="st6" d="M136,399.7c-1.2,0.5-2.3,0.9-3.5,1.4C133.7,400.6,134.9,400.1,136,399.7z"/>
			<path class="st6" d="M127.5,403.3c-0.7,0.3-1.4,0.6-2,0.9C126.1,403.9,126.8,403.6,127.5,403.3z"/>
			<path class="st7" d="M116.8,408.5c0.5-0.3,1-0.5,1.5-0.8c0.7-0.3,1.3-0.7,2-1c0.5-0.3,1-0.5,1.6-0.8c0.7-0.3,1.3-0.6,2-0.9
				c0.5-0.2,1.1-0.5,1.6-0.7c0.7-0.3,1.3-0.6,2-0.9c0.5-0.2,1-0.5,1.5-0.7c0.7-0.3,1.5-0.6,2.2-1c0.5-0.2,0.9-0.4,1.4-0.6
				c1.2-0.5,2.3-1,3.5-1.4c0.4-0.1,0.7-0.3,1.1-0.4c0.9-0.3,1.7-0.7,2.6-1c0.5-0.2,1-0.4,1.5-0.6c0.7-0.3,1.4-0.5,2.1-0.8
				c0.5-0.2,1.1-0.4,1.6-0.6c0.7-0.2,1.3-0.5,2-0.7c0.5-0.2,1.1-0.4,1.6-0.6c0.7-0.2,1.3-0.5,2-0.7c0.5-0.2,1.1-0.4,1.6-0.5
				c0.7-0.2,1.3-0.4,2-0.7c0.5-0.2,1-0.3,1.6-0.5c0.7-0.2,1.4-0.4,2.1-0.7c0.5-0.1,0.9-0.3,1.4-0.4c1.1-0.3,2.3-0.7,3.4-1
				c0,0,0,0,0,0c-0.9-2.2-8.3-17.5-16.5-40.2c-8.9-24.5-3.3-59-5.3-60.7c-2-1.6-45.9,18.1-45.9,18.1l0,0l0,0c0,0,3.8,36.9,6.4,53.6
				c2.6,16.7,6.3,40.3,9.7,49.2c0.1,0.3,0.2,0.6,0.4,0.8c0.6-0.4,1.3-0.7,1.9-1.1c0.5-0.3,0.9-0.5,1.4-0.8
				C115.5,409.2,116.1,408.8,116.8,408.5z"/>
			<g class="st4">
				<path d="M162.7,390.5C162.7,390.5,162.7,390.5,162.7,390.5c-1.2,0.3-2.3,0.7-3.4,1c-0.5,0.1-0.9,0.3-1.4,0.4
					c-0.7,0.2-1.4,0.4-2.1,0.7c-0.5,0.2-1,0.3-1.6,0.5c-0.7,0.2-1.3,0.4-2,0.7c-0.5,0.2-1.1,0.4-1.6,0.5c-0.7,0.2-1.3,0.4-2,0.7
					c-0.5,0.2-1.1,0.4-1.6,0.6c-0.7,0.2-1.3,0.5-2,0.7c-0.5,0.2-1.1,0.4-1.6,0.6c-0.7,0.3-1.4,0.5-2.1,0.8c-0.5,0.2-1,0.4-1.5,0.6
					c-0.9,0.3-1.7,0.7-2.6,1c-0.4,0.1-0.7,0.3-1.1,0.4c-1.2,0.5-2.3,0.9-3.5,1.4c-0.5,0.2-0.9,0.4-1.4,0.6c-0.7,0.3-1.5,0.6-2.2,1
					c-0.5,0.2-1,0.5-1.5,0.7c-0.7,0.3-1.4,0.6-2,0.9c-0.5,0.2-1.1,0.5-1.6,0.7c-0.7,0.3-1.3,0.6-2,0.9c-0.5,0.3-1.1,0.5-1.6,0.8
					c-0.7,0.3-1.3,0.7-2,1c-0.5,0.3-1,0.5-1.5,0.8c-0.7,0.4-1.4,0.7-2,1.1c-0.5,0.3-0.9,0.5-1.4,0.8c-0.6,0.3-1.3,0.7-1.9,1.1
					c4,8.1,19,9.1,27.1,10.2c8.4,1,40-14.4,43.3-19.1c1.7-2.5,3.1-3.1,2-7.1C176.9,393.7,170.6,392.1,162.7,390.5
					C162.8,390.5,162.8,390.5,162.7,390.5z"/>
			</g>
		</g>
		<path class="st0" d="M152.1,298.6c0,0-3,0.3-3.8,1.1c-0.8,0.8-1.9,38.7,1.9,44.9c0.2,0.4-0.3,0.3,1.9,1.6
			c2.2,1.3,12.1,5.6,15.2,3.6s10.3-8.4,9.8-11.1c-0.5-2.7-3.3-4.7-6.5-11c-2.9-5.6-4-23.5-4-23.5
			C165.5,303.7,153.7,298.3,152.1,298.6z"/>
		<g>
			<path class="st4" d="M177.1,338.8c0,0,0-0.1,0-0.1c-0.5-2.7-3.3-4.7-6.5-11c-2.9-5.6-4-23.5-4-23.5c-1-0.5-10.9-5-13.9-5.6
				c0.1,1,2.3,12.6,4.2,21.2c1.7,7.7,5.3,13.1,6.2,14.4c0.2-0.1,0.3-0.2,0.4-0.2C164.2,334.2,173.3,336.6,177.1,338.8z"/>
			<path class="st8" d="M163.5,334c-0.1,0-0.2,0.1-0.4,0.2c-2,1.3-10,9.2-12.1,11.3c0.2,0.2,0.6,0.4,1,0.7
				c2.2,1.3,12.1,5.6,15.2,3.6c2.6-1.7,8.3-6.7,9.6-9.8c0.2-0.5,0.3-0.9,0.2-1.2C173.3,336.6,164.2,334.2,163.5,334z"/>
		</g>
		<g>
			<path class="st9" d="M181.2,395.3c0,0-0.2,0-0.7,0c-0.5,0-1.2-0.1-2-0.3c-1.8-0.3-4.3-1-7.3-1.9c-1.5-0.4-3.2-0.9-5-1.3
				c-1.8-0.4-3.8-0.6-5.9-0.2c-4.1,0.7-8.3,2.8-13,4.3c-9.2,3.2-17.3,6.7-23,9.6c-2.9,1.4-5.1,2.6-6.7,3.5c-0.7,0.4-1.3,0.7-1.8,1
				c-0.4,0.2-0.6,0.3-0.6,0.3c0,0,0.2-0.2,0.6-0.4c0.4-0.2,1-0.6,1.8-1.1c1.5-0.9,3.8-2.2,6.6-3.6c5.7-2.9,13.7-6.5,23-9.7
				c4.6-1.5,8.8-3.6,13-4.3c1.1-0.2,2.1-0.2,3.1-0.2c1,0.1,2,0.2,2.9,0.4c1.8,0.4,3.5,0.9,5.1,1.3c3,1,5.5,1.7,7.2,2.1
				c0.9,0.2,1.5,0.3,2,0.4C181,395.2,181.2,395.3,181.2,395.3z"/>
		</g>
		<g>
			<path class="st9" d="M163.7,334.2c0,0.1-0.7,0.7-1.8,1.7c-1.2,1-2.8,2.4-4.5,3.9c-1.7,1.6-3.2,3-4.3,4.1
				c-1.1,1.1-1.8,1.7-1.8,1.7c-0.1,0,0.5-0.8,1.6-1.9c1-1.1,2.5-2.6,4.3-4.2c1.7-1.6,3.4-2.9,4.6-3.8
				C162.8,334.6,163.6,334.1,163.7,334.2z"/>
		</g>
		<g>
			<path class="st9" d="M161.4,331.7c0,0-0.3-0.3-0.7-1c-0.4-0.7-1-1.7-1.6-3c-1.2-2.6-2.2-6.4-3.1-10.7c-0.9-4.2-1.6-8.1-2-10.9
				c-0.2-1.4-0.3-2.6-0.4-3.3c-0.1-0.8-0.1-1.2,0-1.2c0,0,0.1,0.4,0.2,1.2c0.1,0.9,0.3,2,0.5,3.3c0.5,2.8,1.2,6.6,2.1,10.9
				c0.9,4.2,1.8,8,2.9,10.7C160.6,330.1,161.5,331.6,161.4,331.7z"/>
		</g>
		<g>
			<path class="st9" d="M176.2,338.3c-0.1,0.1-2.8-1.2-6.3-2.3c-3.5-1.2-6.5-1.8-6.5-1.9c0-0.1,0.8,0,2,0.2c1.2,0.2,2.9,0.6,4.7,1.2
				c1.8,0.6,3.3,1.3,4.4,1.8C175.6,337.9,176.2,338.3,176.2,338.3z"/>
		</g>
		<g class="st4">
			<path class="st5" d="M120.4,221c-1.2,6.2-0.7,12.6,1.5,18.5c0,0-37.9,12-56,20.1c-2.9-4.9-4.1-10.7-3.3-16.4L120.4,221z"/>
		</g>
		<g>
			<path class="st9" d="M144.9,183.2c0,0-0.1,0.1-0.3,0.2c-0.3,0.1-0.6,0.2-1,0.4c-0.9,0.4-2.2,1-3.7,2c-3,2-7,5.8-9.8,11.8
				c-2.9,5.9-4.7,13.7-4.7,22.3c-0.1,8.7,1.5,18.2,4.8,27.7c3.3,9.4,8.1,17.9,13.6,24.6c5.5,6.7,11.7,11.7,17.7,14.5
				c5.9,2.9,11.4,3.4,15,3.1c1.8-0.2,3.2-0.5,4.2-0.7c0.4-0.1,0.8-0.2,1.1-0.3c0.2-0.1,0.4-0.1,0.4-0.1c0,0-0.1,0.1-0.4,0.1
				c-0.3,0.1-0.6,0.2-1,0.3c-0.9,0.3-2.3,0.6-4.2,0.8c-3.6,0.4-9.2-0.1-15.2-2.9c-6-2.8-12.3-7.7-17.9-14.5
				c-5.6-6.7-10.3-15.2-13.7-24.7c-3.3-9.5-4.9-19.1-4.7-27.8c0.1-8.7,2-16.6,4.9-22.5c2.9-6,6.9-9.8,10-11.8c1.6-1,2.9-1.6,3.8-2
				c0.4-0.2,0.8-0.3,1-0.4C144.7,183.2,144.8,183.2,144.9,183.2z"/>
		</g>
		<g>
			<path class="st9" d="M166,296.4c0,0-0.4,0-1,0c-0.6,0-1.5-0.1-2.6-0.3c-2.2-0.3-5.3-0.8-8.6-1.7c-3.3-0.9-6.2-1.9-8.3-2.8
				c-1-0.4-1.9-0.8-2.4-1.1c-0.6-0.3-0.9-0.4-0.9-0.5c0-0.1,1.3,0.5,3.4,1.2c2.1,0.8,5,1.8,8.3,2.6c3.3,0.9,6.3,1.5,8.5,1.8
				C164.7,296.1,166.1,296.3,166,296.4z"/>
		</g>
		<g>
			<path class="st9" d="M138.2,289.5c0.1,0.1-9.6,4.3-21.5,9.4C104.7,304,95,308,95,307.8c-0.1-0.1,9.6-4.3,21.5-9.4
				C128.4,293.4,138.2,289.4,138.2,289.5z"/>
		</g>
		<g>
			<path class="st9" d="M236.9,98.7c0,0-0.1,0.1-0.2,0.3c-0.1,0.2-0.3,0.5-0.6,0.8c-0.5,0.7-1.3,1.8-2.2,3.1
				c-1.9,2.7-4.7,6.6-8.3,11.3c-3.5,4.8-7.8,10.4-12.6,16.6c-2.4,3.1-5,6.3-7.7,9.6c-1.4,1.6-2.8,3.3-4.2,5c-1.4,1.7-3,3.3-4.5,5
				c-6.4,6.5-13,12-19.2,16.8c-6.2,4.8-12,8.9-16.9,12.2c-4.9,3.3-9,5.9-11.8,7.6c-1.4,0.9-2.5,1.5-3.3,2c-0.4,0.2-0.6,0.4-0.9,0.5
				c-0.2,0.1-0.3,0.2-0.3,0.2c0,0,0.1-0.1,0.3-0.2c0.2-0.1,0.5-0.3,0.8-0.5c0.8-0.5,1.8-1.2,3.2-2.1c2.8-1.8,6.8-4.4,11.7-7.8
				c4.9-3.4,10.6-7.5,16.8-12.3c6.2-4.8,12.8-10.4,19.1-16.8c1.5-1.7,3.1-3.3,4.5-4.9c1.4-1.7,2.9-3.3,4.2-5
				c2.7-3.3,5.3-6.5,7.7-9.5c4.9-6.1,9.2-11.8,12.7-16.5c3.5-4.7,6.4-8.6,8.4-11.2c1-1.3,1.7-2.3,2.3-3.1c0.3-0.3,0.4-0.6,0.6-0.8
				C236.9,98.8,236.9,98.7,236.9,98.7z"/>
		</g>
		<g>
			<path class="st9" d="M175.3,284.2c0,0,0.1,0,0.3,0c0.2,0,0.5,0,0.9,0c0.8,0,2,0,3.5,0c3,0,7.4,0,12.8-0.1c10.8,0,25.7,0,42.1,0
				c16.5,0,31.3,2.2,41.9,4.2c5.3,1,9.6,1.9,12.5,2.6c1.5,0.3,2.6,0.6,3.4,0.8c0.4,0.1,0.6,0.2,0.9,0.2c0.2,0.1,0.3,0.1,0.3,0.1
				c0,0-0.1,0-0.3,0c-0.2,0-0.5-0.1-0.9-0.2c-0.8-0.2-1.9-0.4-3.4-0.7c-2.9-0.6-7.2-1.5-12.5-2.5c-10.6-1.9-25.4-4-41.8-4
				c-16.4-0.1-31.3-0.1-42.1-0.2c-5.4,0-9.7-0.1-12.8-0.1c-1.5,0-2.6,0-3.5-0.1c-0.4,0-0.7,0-0.9,0
				C175.4,284.2,175.3,284.2,175.3,284.2z"/>
		</g>
	</g>
	<path class="st4" d="M365.9,166.2l-130.6-65.5l-7.9,11.1c-3.5,26.9,0.1,61,11.6,96c11.1,33.8,27.6,62.5,45.6,82.1l26.1,6.3
		L365.9,166.2z"/>
	<g>
		
			<ellipse transform="matrix(0.9502 -0.3116 0.3116 0.9502 -42.217 104.9329)" class="st3" cx="307.2" cy="184.6" rx="66.8" ry="136"/>
		
			<ellipse transform="matrix(0.9502 -0.3116 0.3116 0.9502 -42.2397 105.5671)" class="st1" cx="309.2" cy="184.9" rx="44.7" ry="112"/>
		<g>
			<path class="st4" d="M363.3,168.6c-19.8-60.5-56.9-102.6-82.7-94.1c-3,1-5.7,2.6-8.2,4.8c0.7-0.3,1.3-0.6,2-0.8
				c23.5-7.7,58.1,33.7,77.4,92.5c19.3,58.8,15.9,112.6-7.6,120.3c-3.5,1.2-7.3,1.2-11.2,0.2c6.8,3.1,13.4,3.8,19.4,1.8
				C378.2,285,383.1,229.1,363.3,168.6z"/>
		</g>
		<path class="st3" d="M259.8,176.5l61.1-13.2L332,197l-55.5,29.4C276.5,226.5,260.8,191.8,259.8,176.5z"/>
		<path class="st10" d="M276.8,172.8c-1,0.4-12.3,20.3-4.5,31.7c7.8,11.4,16.2,15.6,16.2,15.6l-11.3,6.1l-11.8-31.3l-5.7-18.4
			L276.8,172.8z"/>
		<path class="st3" d="M335,177.3c3.1,9.3,1.7,18.2-3,19.7c-4.7,1.5-11-4.8-14.1-14.1c-3.1-9.3-1.7-18.2,3-19.7
			C325.6,161.7,331.9,168,335,177.3z"/>
		<g>
			<path class="st9" d="M335,177.3c0,0-0.1-0.3-0.3-0.8c-0.2-0.5-0.5-1.3-1-2.3c-0.5-1-1-2.2-1.9-3.5c-0.8-1.3-1.8-2.8-3.2-4.2
				c-1.3-1.4-3.1-2.8-5.3-3.2c-1.1-0.2-2.3-0.1-3.3,0.5c-1,0.6-1.8,1.6-2.3,2.7c-1.1,2.3-1.3,5-1.2,7.8c0.1,2.8,0.7,5.6,1.6,8.5
				c0.9,2.8,2.2,5.4,3.7,7.8c1.6,2.3,3.4,4.3,5.6,5.6c1.1,0.6,2.3,0.9,3.5,0.8c1.2-0.1,2.2-0.7,3-1.5c1.5-1.7,2.1-3.8,2.3-5.7
				c0.3-1.9,0.2-3.7,0.1-5.2c-0.1-1.5-0.4-2.9-0.6-3.9c-0.2-1.1-0.4-1.9-0.6-2.4C335,177.6,335,177.3,335,177.3c0,0,0.1,0.3,0.3,0.8
				c0.2,0.5,0.4,1.4,0.7,2.4c0.2,1.1,0.5,2.4,0.7,3.9c0.2,1.6,0.2,3.3,0,5.3c-0.3,1.9-0.8,4.2-2.4,6c-0.8,0.9-1.9,1.6-3.2,1.7
				c-1.3,0.1-2.6-0.2-3.8-0.9c-2.3-1.3-4.2-3.4-5.8-5.7c-1.6-2.4-2.8-5-3.8-7.9c-0.9-2.9-1.5-5.8-1.6-8.6c-0.1-2.8,0.2-5.6,1.3-8
				c0.6-1.2,1.4-2.3,2.5-2.9c1.1-0.7,2.4-0.8,3.6-0.6c2.3,0.5,4.1,2,5.4,3.4c1.4,1.4,2.4,2.9,3.2,4.3c0.8,1.3,1.4,2.6,1.8,3.6
				c0.4,1,0.7,1.8,0.9,2.4C334.9,177,335,177.3,335,177.3z"/>
		</g>
		
			<ellipse transform="matrix(0.9502 -0.3116 0.3116 0.9502 -39.8581 110.7512)" class="st4" cx="326.6" cy="180.1" rx="5.2" ry="10.2"/>
		<g>
			<path class="st9" d="M274.3,78.5c0,0-0.2,0.1-0.6,0.3c-0.4,0.2-1,0.4-1.8,0.8c-1.5,0.8-3.7,2.2-5.9,4.5
				c-4.5,4.7-8.5,13.6-10.2,25.1c-0.9,5.7-1.4,12.1-1.4,19c0,6.8,0.5,14.2,1.4,21.8c1.8,15.3,5.6,31.9,11.1,48.8
				c5.6,16.9,12.4,32.5,19.9,45.9c3.8,6.7,7.7,12.9,11.8,18.4c4,5.5,8.2,10.4,12.3,14.5c8.2,8.3,16.7,13,23.1,14.2
				c3.2,0.6,5.7,0.4,7.4,0.2c0.8-0.1,1.5-0.3,1.9-0.4c0.4-0.1,0.7-0.1,0.7-0.1s-0.9,0.3-2.5,0.7c-1.7,0.3-4.3,0.5-7.5-0.1
				c-3.2-0.6-7-2-11-4.4c-4-2.4-8.2-5.7-12.3-9.8c-4.2-4.1-8.4-9-12.4-14.5c-4.1-5.5-8-11.7-11.8-18.4c-7.6-13.4-14.4-29-20-45.9
				c-5.5-16.9-9.3-33.5-11.1-48.9c-0.9-7.7-1.4-15-1.4-21.9c0-6.9,0.5-13.3,1.4-19c0.9-5.8,2.3-10.9,4.2-15.2
				c1.8-4.3,4-7.7,6.3-10.1c2.3-2.4,4.5-3.7,6-4.5C273.4,78.8,274.3,78.5,274.3,78.5z"/>
		</g>
		<path class="st10" d="M271.2,211.7l50.2-21.3c0,0,3.9,6.6,8.9,6.9l-53,28.9L271.2,211.7z"/>
		<path class="st11" d="M237.9,126.7c0,0-2.7,11.7,0,16.2h9.3v-16.2H237.9z"/>
		<g class="st4">
			<path class="st5" d="M279.8,53.9c-7.6,1.4-14.6,4.8-20.7,10.3c-15.4,13-21.7,35.8-21.6,55.7c3.1-0.7,7.5-1.7,10.2,0
				c0.8-10,1.7-20.2,5.3-29.5c3.6-9.4,10.2-18,19.5-21.8c7.6-3.1,16.2-2.7,24.1-0.4c17.7,5.1,31.3,18.4,43.5,32.4
				C321.4,73.4,299.6,56.1,279.8,53.9z"/>
		</g>
		<g>
			<path class="st5" d="M371.4,280.3c0,0-0.1,0.2-0.3,0.7c-0.2,0.4-0.5,1.1-0.9,1.9c-0.8,1.7-2.2,4-4.3,6.6
				c-2.1,2.6-4.9,5.4-8.6,7.9c-1.9,1.2-3.9,2.3-6.1,3.2c-2.2,0.9-4.7,1.5-7.2,1.9c-5.1,0.6-10-0.6-14-2.5c-4-1.8-7.3-4.1-10-6.1
				c-2.6-2-4.7-3.8-6-5.1c-0.7-0.6-1.2-1.1-1.6-1.5c-0.4-0.3-0.5-0.5-0.5-0.5c0,0,0.2,0.1,0.6,0.5c0.4,0.3,1,0.8,1.6,1.4
				c1.4,1.2,3.5,2.9,6.1,4.9c2.7,2,5.9,4.2,9.9,6c4,1.8,8.8,3,13.8,2.4c2.5-0.3,4.9-1,7.1-1.8c2.2-0.8,4.2-2,6.1-3.1
				c3.7-2.4,6.5-5.2,8.6-7.7c2.1-2.6,3.5-4.8,4.4-6.5c0.5-0.8,0.8-1.5,1-1.9C371.3,280.5,371.4,280.3,371.4,280.3z"/>
		</g>
		<g class="st4">
			<path d="M293.6,243c-15.4-32.7-25.6-67.9-30-103.8c-1.5-11.9-2.3-24-0.5-35.9c1.2-8.3,3.8-16.4,8-23.6
				c-20.9,10.9-23.3,62.8-4.8,119.2c19.3,58.8,53.9,100.2,77.4,92.5c0.8-0.3,1.6-0.6,2.4-1c-11.9-0.6-23.2-6.8-31.6-15.3
				C305.3,266,299.1,254.6,293.6,243z"/>
		</g>
	</g>
</g>
<polygon class="st3" points="374.9,167.9 436.3,156.9 426.9,143.4 460.5,129.2 406.8,135.7 416.6,150.4 "/>
<polygon class="st3" points="369.2,128.3 408.2,97.1 393,90.6 406.6,65.9 374.9,92.6 388,98.8 "/>
<polygon class="st3" points="389.6,201.1 428.8,232.2 429.8,220.6 455.8,231.2 422.1,204.1 421,216.5 "/>
</svg>
